<svg xmlns="http://www.w3.org/2000/svg" width="128" height="107.097" viewBox="0 0 128 107.097">
  <g id="_1012232" data-name="1012232" transform="translate(0 -41.807)">
    <g id="Group_1" data-name="Group 1" transform="translate(5.977 41.807)">
      <path id="Path_1" data-name="Path 1" d="M34.637,41.807H27.589a3.681,3.681,0,0,0-3.681,3.681V145.916A2.988,2.988,0,0,0,26.9,148.9H35.33a2.988,2.988,0,0,0,2.987-2.988V45.488A3.681,3.681,0,0,0,34.637,41.807Z" transform="translate(-23.908 -41.807)" fill="#d4d2d3"/>
      <path id="Path_2" data-name="Path 2" d="M434.133,41.807h7.047a3.681,3.681,0,0,1,3.681,3.681V145.916a2.988,2.988,0,0,1-2.987,2.988H433.44a2.988,2.988,0,0,1-2.988-2.988V45.488A3.681,3.681,0,0,1,434.133,41.807Z" transform="translate(-328.816 -41.807)" fill="#d4d2d3"/>
    </g>
    <g id="Group_2" data-name="Group 2" transform="translate(0 51.097)">
      <path id="Path_3" data-name="Path 3" d="M18.606,78.967,6.451,84.559,0,97.574v20.077l25.376-15.587,13.307-23.1Z" transform="translate(0 -78.967)" fill="#465059"/>
      <path id="Path_4" data-name="Path 4" d="M90.168,78.967l-31.811,23.1-14.383,23.1H64.051l29.058-18.753,17.136-27.441Z" transform="translate(-32.98 -78.967)" fill="#465059"/>
      <path id="Path_5" data-name="Path 5" d="M244.49,78.967l-35.639,27.441L198.3,125.161h20.077l29.174-19.768,17.02-26.426Z" transform="translate(-148.722 -78.967)" fill="#465059"/>
      <path id="Path_6" data-name="Path 6" d="M360.233,128.55l-7.613,15.656H372.7l14.349-7.51,5.419-12.258V104.361Z" transform="translate(-264.465 -98.012)" fill="#465059"/>
    </g>
    <g id="Group_3" data-name="Group 3" transform="translate(0 51.097)">
      <path id="Path_7" data-name="Path 7" d="M452.7,184.671v13.791a5.977,5.977,0,0,1-5.977,5.977H432.929Z" transform="translate(-324.697 -158.245)" fill="#ffcd38"/>
      <path id="Path_8" data-name="Path 8" d="M336.955,84.944v.372L297.11,125.161h-18.5L324.8,78.967h6.178A5.977,5.977,0,0,1,336.955,84.944Z" transform="translate(-208.955 -78.967)" fill="#ffcd38"/>
      <path id="Path_9" data-name="Path 9" d="M188.981,78.967l-46.194,46.194h-18.5l46.194-46.194Z" transform="translate(-93.213 -78.967)" fill="#ffcd38"/>
      <path id="Path_10" data-name="Path 10" d="M57.187,78.967,10.993,125.161H5.977A5.977,5.977,0,0,1,0,119.184v-1.533L38.684,78.967Z" transform="translate(0 -78.967)" fill="#ffcd38"/>
      <path id="Path_11" data-name="Path 11" d="M18.606,78.967,0,97.574V84.944a5.977,5.977,0,0,1,5.977-5.977h12.63Z" transform="translate(0 -78.967)" fill="#ffcd38"/>
    </g>
    <g id="Group_4" data-name="Group 4" transform="translate(5.978 97.29)">
      <rect id="Rectangle_1" data-name="Rectangle 1" width="14.41" height="7.775" fill="#bab8b9"/>
      <rect id="Rectangle_2" data-name="Rectangle 2" width="14.41" height="7.775" transform="translate(101.635)" fill="#bab8b9"/>
    </g>
  </g>
</svg>
